<svg viewBox="0 0 800 240" xmlns="http://www.w3.org/2000/svg"><defs>
  <linearGradient id="bg" x1="0" y1="0" x2="1" y2="1">
    <stop offset="0%" stop-color="#2a1000"/>
    <stop offset="100%" stop-color="#4a2000"/>
  </linearGradient>
  <linearGradient id="tov" x1="0" y1="0" x2="1" y2="0">
    <stop offset="0%" stop-color="black" stop-opacity="0.45"/>
    <stop offset="55%" stop-color="black" stop-opacity="0.1"/>
    <stop offset="100%" stop-color="black" stop-opacity="0"/>
  </linearGradient>
</defs><rect width="800" height="240" fill="url(#bg)"/><g opacity="0.13" stroke="white" fill="none">
  <clipPath id="racket-clip">
    <ellipse cx="600" cy="130" rx="96" ry="118"/>
  </clipPath>
  <g clip-path="url(#racket-clip)" stroke-width="0.8"><line x1="504.0" y1="12" x2="504.0" y2="248"/><line x1="523.2" y1="12" x2="523.2" y2="248"/><line x1="542.4" y1="12" x2="542.4" y2="248"/><line x1="561.6" y1="12" x2="561.6" y2="248"/><line x1="580.8" y1="12" x2="580.8" y2="248"/><line x1="600.0" y1="12" x2="600.0" y2="248"/><line x1="619.2" y1="12" x2="619.2" y2="248"/><line x1="638.4" y1="12" x2="638.4" y2="248"/><line x1="657.6" y1="12" x2="657.6" y2="248"/><line x1="676.8" y1="12" x2="676.8" y2="248"/><line x1="696.0" y1="12" x2="696.0" y2="248"/><line x1="504" y1="24.0" x2="696" y2="24.0"/><line x1="504" y1="42.7" x2="696" y2="42.7"/><line x1="504" y1="61.4" x2="696" y2="61.4"/><line x1="504" y1="80.1" x2="696" y2="80.1"/><line x1="504" y1="98.8" x2="696" y2="98.8"/><line x1="504" y1="117.5" x2="696" y2="117.5"/><line x1="504" y1="136.2" x2="696" y2="136.2"/><line x1="504" y1="154.9" x2="696" y2="154.9"/><line x1="504" y1="173.6" x2="696" y2="173.6"/><line x1="504" y1="192.3" x2="696" y2="192.3"/><line x1="504" y1="211.0" x2="696" y2="211.0"/><line x1="504" y1="229.7" x2="696" y2="229.7"/><line x1="504" y1="248.4" x2="696" y2="248.4"/></g>
  <ellipse cx="600" cy="130" rx="96" ry="118" stroke-width="2"/>
  <line x1="584" y1="248" x2="576" y2="272" stroke-width="8" stroke-linecap="round"/>
  <line x1="616" y1="248" x2="624" y2="272" stroke-width="8" stroke-linecap="round"/>
  <rect x="576" y="268" width="48" height="5" rx="2" stroke-width="1.5"/>
</g><rect x="0" y="0" width="5" height="240" fill="#fb923c" opacity="0.9"/></svg>